HIERARCHY
ROOT reference
{
  OFFSET 0 0 0
  CHANNELS 6 Xposition Yposition Zposition Zrotation Xrotation Yrotation
  JOINT Hips
  {
    OFFSET 387.421 88.6843 214.036
    CHANNELS 3 Zrotation Xrotation Yrotation
    JOINT RightUpLeg
    {
      OFFSET -9.26407 -1.54033 -0.0169218
      CHANNELS 3 Zrotation Xrotation Yrotation
      JOINT RightLeg
      {
        OFFSET 0.0262756 -41.889 0.0389421
        CHANNELS 3 Zrotation Xrotation Yrotation
        JOINT RightFoot
        {
          OFFSET -0.025595 -42.7244 0.117519
          CHANNELS 3 Zrotation Xrotation Yrotation
          End Site
          {
            OFFSET 0 -7.69 17.5
          }
        }
      }
    }
    JOINT LeftUpLeg
    {
      OFFSET 9.28488 -1.63184 0.00456132
      CHANNELS 3 Zrotation Xrotation Yrotation
      JOINT LeftLeg
      {
        OFFSET -0.00133996 -41.8929 0.0117795
        CHANNELS 3 Zrotation Xrotation Yrotation
        JOINT LeftFoot
        {
          OFFSET 0.253805 -40.8902 0.809143
          CHANNELS 3 Zrotation Xrotation Yrotation
          End Site
          {
            OFFSET 0 -7.69 17.5
          }
        }
      }
    }
    JOINT Spine
    {
      OFFSET 0.04218 14.2944 0.0529257
      CHANNELS 3 Zrotation Xrotation Yrotation
      JOINT Spine1
      {
        OFFSET 0.022284 9.72228 0.00997239
        CHANNELS 3 Zrotation Xrotation Yrotation
        JOINT Spine2
        {
          OFFSET 0.0397412 10.1199 -0.0103674
          CHANNELS 3 Zrotation Xrotation Yrotation
          JOINT Spine3
          {
            OFFSET 0.0389473 9.71765 -0.00772733
            CHANNELS 3 Zrotation Xrotation Yrotation
            JOINT Neck
            {
              OFFSET 0.0437972 10.3765 0.0320322
              CHANNELS 3 Zrotation Xrotation Yrotation
              JOINT Head
              {
                OFFSET 0.0431994 9.46781 0.0291763
                CHANNELS 3 Zrotation Xrotation Yrotation
                End Site
                {
                  OFFSET 0 15.95 0
                }
              }
            }
            JOINT RightShoulder
            {
              OFFSET -3.17206 6.93005 0.0018626
              CHANNELS 3 Zrotation Xrotation Yrotation
              JOINT RightArm
              {
                OFFSET -12.781 0.0116363 0.0199633
                CHANNELS 3 Zrotation Xrotation Yrotation
                JOINT RightForeArm
                {
                  OFFSET -26.5135 -0.0113607 0.0486864
                  CHANNELS 3 Zrotation Xrotation Yrotation
                  JOINT RightHand
                  {
                    OFFSET -25.9857 -0.0984063 0.163753
                    CHANNELS 3 Zrotation Xrotation Yrotation
                    JOINT RightHandThumb1
                    {
                      OFFSET -2.48905 0.190105 3.12053
                      CHANNELS 3 Zrotation Xrotation Yrotation
                      JOINT RightHandThumb2
                      {
                        OFFSET -3.68274 0 0
                        CHANNELS 3 Zrotation Xrotation Yrotation
                        JOINT RightHandThumb3
                        {
                          OFFSET -2.55832 0 0
                          CHANNELS 3 Zrotation Xrotation Yrotation
                          End Site
                          {
                            OFFSET -2.194 0 0
                          }
                        }
                      }
                    }
                    JOINT RightInHandIndex
                    {
                      OFFSET -3.22368 0.508421 1.97842
                      CHANNELS 3 Zrotation Xrotation Yrotation
                      JOINT RightHandIndex1
                      {
                        OFFSET -5.21684 -0.091368 0.999158
                        CHANNELS 3 Zrotation Xrotation Yrotation
                        JOINT RightHandIndex2
                        {
                          OFFSET -3.61937 0 0
                          CHANNELS 3 Zrotation Xrotation Yrotation
                          JOINT RightHandIndex3
                          {
                            OFFSET -2.0521 0 0
                            CHANNELS 3 Zrotation Xrotation Yrotation
                            End Site
                            {
                              OFFSET -1.805 0 0
                            }
                          }
                        }
                      }
                    }
                    JOINT RightInHandMiddle
                    {
                      OFFSET -3.38211 0.517263 0.756737
                      CHANNELS 3 Zrotation Xrotation Yrotation
                      JOINT RightHandMiddle1
                      {
                        OFFSET -5.17411 -0.084 0.313895
                        CHANNELS 3 Zrotation Xrotation Yrotation
                        JOINT RightHandMiddle2
                        {
                          OFFSET -3.94947 0 0
                          CHANNELS 3 Zrotation Xrotation Yrotation
                          JOINT RightHandMiddle3
                          {
                            OFFSET -2.47579 0 0
                            CHANNELS 3 Zrotation Xrotation Yrotation
                            End Site
                            {
                              OFFSET -1.975 0 0
                            }
                          }
                        }
                      }
                    }
                    JOINT RightInHandRing
                    {
                      OFFSET -3.36516 0.537895 -0.128947
                      CHANNELS 3 Zrotation Xrotation Yrotation
                      JOINT RightHandRing1
                      {
                        OFFSET -4.63474 -0.022105 -0.478947
                        CHANNELS 3 Zrotation Xrotation Yrotation
                        JOINT RightHandRing2
                        {
                          OFFSET -3.44238 0 0
                          CHANNELS 3 Zrotation Xrotation Yrotation
                          JOINT RightHandRing3
                          {
                            OFFSET -2.3881 0 0
                            CHANNELS 3 Zrotation Xrotation Yrotation
                            End Site
                            {
                              OFFSET -1.857 0 0
                            }
                          }
                        }
                      }
                    }
                    JOINT RightInHandPinky
                    {
                      OFFSET -3.16105 0.469368 -1.20179
                      CHANNELS 3 Zrotation Xrotation Yrotation
                      JOINT RightHandPinky1
                      {
                        OFFSET -4.14105 -0.022105 -1.09053
                        CHANNELS 3 Zrotation Xrotation Yrotation
                        JOINT RightHandPinky2
                        {
                          OFFSET -2.75653 0 0
                          CHANNELS 3 Zrotation Xrotation Yrotation
                          JOINT RightHandPinky3
                          {
                            OFFSET -1.74189 0 0
                            CHANNELS 3 Zrotation Xrotation Yrotation
                            End Site
                            {
                              OFFSET -1.645 0 0
                            }
                          }
                        }
                      }
                    }
                  }
                }
              }
            }
            JOINT LeftShoulder
            {
              OFFSET 3.23848 6.90919 -0.0119143
              CHANNELS 3 Zrotation Xrotation Yrotation
              JOINT LeftArm
              {
                OFFSET 12.8241 -0.0554782 -0.0520121
                CHANNELS 3 Zrotation Xrotation Yrotation
                JOINT LeftForeArm
                {
                  OFFSET 26.4865 -0.0658343 -0.0244543
                  CHANNELS 3 Zrotation Xrotation Yrotation
                  JOINT LeftHand
                  {
                    OFFSET 25.985 -0.0475988 -0.0124738
                    CHANNELS 3 Zrotation Xrotation Yrotation
                    JOINT LeftHandThumb1
                    {
                      OFFSET 2.48905 0.190105 3.12053
                      CHANNELS 3 Zrotation Xrotation Yrotation
                      JOINT LeftHandThumb2
                      {
                        OFFSET 3.68274 0 0
                        CHANNELS 3 Zrotation Xrotation Yrotation
                        JOINT LeftHandThumb3
                        {
                          OFFSET 2.55832 0 0
                          CHANNELS 3 Zrotation Xrotation Yrotation
                          End Site
                          {
                            OFFSET 2.194 0 0
                          }
                        }
                      }
                    }
                    JOINT LeftInHandIndex
                    {
                      OFFSET 3.22368 0.508421 1.97842
                      CHANNELS 3 Zrotation Xrotation Yrotation
                      JOINT LeftHandIndex1
                      {
                        OFFSET 5.21684 -0.091368 0.999158
                        CHANNELS 3 Zrotation Xrotation Yrotation
                        JOINT LeftHandIndex2
                        {
                          OFFSET 3.61937 0 0
                          CHANNELS 3 Zrotation Xrotation Yrotation
                          JOINT LeftHandIndex3
                          {
                            OFFSET 2.0521 0 0
                            CHANNELS 3 Zrotation Xrotation Yrotation
                            End Site
                            {
                              OFFSET 1.805 0 0
                            }
                          }
                        }
                      }
                    }
                    JOINT LeftInHandMiddle
                    {
                      OFFSET 3.38211 0.517263 0.756737
                      CHANNELS 3 Zrotation Xrotation Yrotation
                      JOINT LeftHandMiddle1
                      {
                        OFFSET 5.17411 -0.084 0.313895
                        CHANNELS 3 Zrotation Xrotation Yrotation
                        JOINT LeftHandMiddle2
                        {
                          OFFSET 3.94947 0 0
                          CHANNELS 3 Zrotation Xrotation Yrotation
                          JOINT LeftHandMiddle3
                          {
                            OFFSET 2.47579 0 0
                            CHANNELS 3 Zrotation Xrotation Yrotation
                            End Site
                            {
                              OFFSET 1.975 0 0
                            }
                          }
                        }
                      }
                    }
                    JOINT LeftInHandRing
                    {
                      OFFSET 3.36516 0.537895 -0.128947
                      CHANNELS 3 Zrotation Xrotation Yrotation
                      JOINT LeftHandRing1
                      {
                        OFFSET 4.63474 -0.022105 -0.478947
                        CHANNELS 3 Zrotation Xrotation Yrotation
                        JOINT LeftHandRing2
                        {
                          OFFSET 3.44238 0 0
                          CHANNELS 3 Zrotation Xrotation Yrotation
                          JOINT LeftHandRing3
                          {
                            OFFSET 2.3881 0 0
                            CHANNELS 3 Zrotation Xrotation Yrotation
                            End Site
                            {
                              OFFSET 1.857 0 0
                            }
                          }
                        }
                      }
                    }
                    JOINT LeftInHandPinky
                    {
                      OFFSET 3.16105 0.469368 -1.20179
                      CHANNELS 3 Zrotation Xrotation Yrotation
                      JOINT LeftHandPinky1
                      {
                        OFFSET 4.14105 -0.022105 -1.09053
                        CHANNELS 3 Zrotation Xrotation Yrotation
                        JOINT LeftHandPinky2
                        {
                          OFFSET 2.75653 0 0
                          CHANNELS 3 Zrotation Xrotation Yrotation
                          JOINT LeftHandPinky3
                          {
                            OFFSET 1.74189 0 0
                            CHANNELS 3 Zrotation Xrotation Yrotation
                            End Site
                            {
                              OFFSET 1.645 0 0
                            }
                          }
                        }
                      }
                    }
                  }
                }
              }
            }
          }
        }
      }
    }
  }
}
MOTION
Frames: 2
Frame Time: 0.00833333
4.500000000000000000e+02 0.000000000000000000e+00 0.000000000000000000e+00 0.000000000000000000e+00 0.000000000000000000e+00 0.000000000000000000e+00 -1.151556978706759840e-02 3.277946861264025014e-02 8.326138218643669431e-02 -5.258948823297475428e-02 3.658001456993608541e-02 -8.101536230948355732e-02 -6.255113564848911734e-02 9.942667332548110748e-02 2.130560235649820444e-01 9.002358984541367071e-02 -1.501368633050756407e-01 -1.850700674727903394e-01 -1.143919356020477313e-01 -1.158638787082544482e-02 9.240153508746104527e-02 2.312321893267083872e-01 -1.337733251569683535e-01 -2.814356372367547432e-01 -1.661036671746524834e-02 1.133539967426708678e-01 -2.297640000753939718e-02 -7.023751241839451542e-02 4.661480400689799880e-02 1.228588842408058351e-01 -1.187262693682796660e-02 1.486051112673840956e-02 2.796200946163879958e-02 -2.532279819840679499e-02 2.345269733975594018e-02 4.314132668249365254e-02 6.976532463000926360e-03 -5.011040118739783222e-03 -8.517460645786657791e-03 2.505763619630721473e-02 7.972290493187617413e-03 -8.137727511444381445e-02 1.246246220732050713e-01 -1.650430369793519925e-01 -9.212297624552934217e-02 -7.301199366924203404e-02 -2.000688120025316263e-01 -1.159050017238612285e-02 -3.958615241802046492e-01 5.700866822304215820e-01 1.489097559446589947e-01 -2.419057697749655289e-01 -6.596423054084761262e-01 -3.811596494421456427e-01 2.853573386159454772e-01 4.343758406507616798e-01 -2.103531157923689554e-01 0.000000000000000000e+00 0.000000000000000000e+00 0.000000000000000000e+00 1.255880151859574890e-16 3.415482690817430236e-15 0.000000000000000000e+00 -8.658782787164505098e-15 -1.393779236629909722e-16 0.000000000000000000e+00 1.787325458741131650e-15 1.464293868750694463e-15 -1.097646861179007618e-15 0.000000000000000000e+00 0.000000000000000000e+00 0.000000000000000000e+00 0.000000000000000000e+00 1.933469300572667231e-15 9.615091916336076618e-15 0.000000000000000000e+00 -4.335902913433617649e-15 -5.002299216514464825e-15 1.787325458741131650e-15 1.464293868750694463e-15 -1.097646861179007618e-15 0.000000000000000000e+00 5.924698489286251953e-16 -4.266511281022424226e-15 0.000000000000000000e+00 4.954734231619223761e-15 5.041964034178587985e-15 0.000000000000000000e+00 2.673553042280541333e-15 -2.818579749743215308e-15 1.787325458741131650e-15 1.464293868750694463e-15 -1.097646861179007618e-15 0.000000000000000000e+00 0.000000000000000000e+00 0.000000000000000000e+00 0.000000000000000000e+00 2.288753246753391444e-15 1.211668207059617445e-14 0.000000000000000000e+00 -5.813917388884953878e-15 -7.111545056531973659e-15 1.787325458741131650e-15 1.464293868750694463e-15 -1.097646861179007618e-15 0.000000000000000000e+00 0.000000000000000000e+00 0.000000000000000000e+00 0.000000000000000000e+00 1.481560566479028266e-15 2.927776622592025984e-15 0.000000000000000000e+00 -2.512224497030614750e-15 -4.857234155383477400e-15 7.024458822605027242e-02 -3.798555955347367868e-02 -1.632549478747653826e-01 1.581979355162179898e-02 -8.222621042527323079e-03 5.387192707679373804e-02 2.262760206527986151e-02 -8.614988469656815750e-01 1.735901278991818508e-01 2.945648508709912405e-02 1.710180031631798103e+00 3.524660302905504028e-01 0.000000000000000000e+00 0.000000000000000000e+00 0.000000000000000000e+00 -1.710143400410830473e-15 -4.419170649979250850e-15 0.000000000000000000e+00 6.086785689555815731e-15 -1.433496614710122746e-15 0.000000000000000000e+00 -5.293341934105452629e-16 -1.558793079252445894e-15 -4.266286286009694260e-16 0.000000000000000000e+00 0.000000000000000000e+00 0.000000000000000000e+00 0.000000000000000000e+00 3.128686816143866205e-16 -1.332996696308534041e-16 0.000000000000000000e+00 -2.781241396282922077e-15 -3.826935607558304928e-15 -5.293341934105452629e-16 -1.558793079252445894e-15 -4.266286286009694260e-16 0.000000000000000000e+00 -2.891091783912054199e-15 2.996826090542615351e-15 0.000000000000000000e+00 -4.609413076166825001e-15 7.189289941402960453e-16 0.000000000000000000e+00 -1.875922152357483529e-15 -4.463029470840210587e-15 -5.293341934105452629e-16 -1.558793079252445894e-15 -4.266286286009694260e-16 0.000000000000000000e+00 0.000000000000000000e+00 0.000000000000000000e+00 0.000000000000000000e+00 -9.958982991406663849e-16 2.537485433267225778e-15 0.000000000000000000e+00 -1.551735938219942850e-15 -4.639430195568101039e-15 -5.293341934105452629e-16 -1.558793079252445894e-15 -4.266286286009694260e-16 0.000000000000000000e+00 0.000000000000000000e+00 0.000000000000000000e+00 0.000000000000000000e+00 2.315579049671511045e-15 6.174499393409442988e-16 0.000000000000000000e+00 3.627292358787894106e-15 1.086902944151416638e-15
4.500000000000000000e+02 0.000000000000000000e+00 0.000000000000000000e+00 0.000000000000000000e+00 0.000000000000000000e+00 0.000000000000000000e+00 -1.132667284170019509e-02 4.096396912973933324e-02 7.361434878176247032e-02 -1.632865340946158123e-02 3.676408575626995828e-02 -1.461498210200531597e-02 -4.424919479964990049e-02 7.807715147951727053e-02 1.613361619958125770e-01 8.376199061346954744e-02 -1.412662516303445082e-01 -1.846395698946132202e-01 -8.518777332147592363e-02 -2.165863719887246158e-02 6.702829957726581800e-02 1.776780970128952752e-01 -1.116885347165868236e-01 -2.288654981571003055e-01 -1.591941619738162714e-02 9.858691203766054012e-02 -1.357274146441996357e-02 -7.730217664258545729e-02 4.445029816561178043e-02 1.304736232011514674e-01 -1.386260925184301836e-02 1.578086417106575046e-02 2.998628426759647816e-02 -2.733480305976164482e-02 2.536363743795182549e-02 4.622804980001919001e-02 8.789019563284932932e-03 -5.847662024133823411e-03 -9.137683723125367488e-03 2.171348777941759650e-02 3.979890140484280275e-03 -6.092526652806269649e-02 1.498980516178273770e-01 -1.605049794775367800e-01 -1.299673381600035815e-01 -6.859871251525655189e-02 -1.998492931711315646e-01 4.660805260532590449e-02 -6.486282303536455851e-01 6.780172069471197549e-01 2.431319283465429026e-01 2.929225932325880688e-01 -9.852501309600028012e-01 2.112982894911402121e-01 1.475114801123303121e-01 4.523191873137066832e-01 -3.575279228557158850e-01 0.000000000000000000e+00 0.000000000000000000e+00 0.000000000000000000e+00 -6.815306156256920286e-15 2.919922518052678184e-15 0.000000000000000000e+00 -8.468638164790718973e-15 5.005640518675862387e-16 0.000000000000000000e+00 8.026405533154033745e-16 1.568995621151631268e-15 5.464786209645754409e-16 0.000000000000000000e+00 0.000000000000000000e+00 0.000000000000000000e+00 0.000000000000000000e+00 5.725664026125335425e-15 1.270199550120579533e-14 0.000000000000000000e+00 -9.144612345978231776e-16 -5.991964616330579185e-15 8.026405533154033745e-16 1.568995621151631268e-15 5.464786209645754409e-16 0.000000000000000000e+00 9.972580336948098284e-16 1.239642183407928183e-15 0.000000000000000000e+00 4.549244312598231479e-15 9.431938131527134058e-15 0.000000000000000000e+00 6.064932164024032263e-16 -3.731610971435583797e-15 8.026405533154033745e-16 1.568995621151631268e-15 5.464786209645754409e-16 0.000000000000000000e+00 0.000000000000000000e+00 0.000000000000000000e+00 0.000000000000000000e+00 3.198912850917941059e-15 1.082638957681165582e-14 0.000000000000000000e+00 -4.126752205391717413e-15 -8.474910698962829508e-15 8.026405533154033745e-16 1.568995621151631268e-15 5.464786209645754409e-16 0.000000000000000000e+00 0.000000000000000000e+00 0.000000000000000000e+00 0.000000000000000000e+00 2.024401389387010965e-15 4.227199742057744250e-15 0.000000000000000000e+00 -1.368809699004772594e-15 -5.728588160827929835e-15 5.892052944015291338e-02 -2.588966017032393388e-02 -9.410066767609773231e-02 2.577189854785040188e-02 -1.613913957121706350e-02 3.300261185906951111e-02 3.842967893375376365e-03 -9.030694575418465320e-01 1.698020576598975873e-01 2.233296174709919341e-02 1.446914415918822527e+00 2.530487846387752260e-01 0.000000000000000000e+00 0.000000000000000000e+00 0.000000000000000000e+00 -2.468582433210303698e-15 -2.505704594976796871e-15 0.000000000000000000e+00 5.566263016323971387e-15 5.386973316640486782e-17 0.000000000000000000e+00 -2.721847523140398954e-16 -1.862130753471901889e-15 -4.366232936623188811e-17 0.000000000000000000e+00 0.000000000000000000e+00 0.000000000000000000e+00 0.000000000000000000e+00 -1.250058582894525020e-15 7.539674709097434501e-16 0.000000000000000000e+00 -2.342098112477326047e-15 1.431391088074833253e-15 -2.721847523140398954e-16 -1.862130753471901889e-15 -4.366232936623188811e-17 0.000000000000000000e+00 -1.598427636723400215e-15 2.679584462153141048e-15 0.000000000000000000e+00 -2.834472819635863356e-15 3.932610799335032533e-15 0.000000000000000000e+00 -1.995639558389035889e-15 -7.059943064529305962e-16 -2.721847523140398954e-16 -1.862130753471901889e-15 -4.366232936623188811e-17 0.000000000000000000e+00 0.000000000000000000e+00 0.000000000000000000e+00 0.000000000000000000e+00 -1.698374524825824836e-15 2.683327254467826802e-15 0.000000000000000000e+00 -1.312020318917043180e-15 -9.446926442723644537e-16 -2.721847523140398954e-16 -1.862130753471901889e-15 -4.366232936623188811e-17 0.000000000000000000e+00 0.000000000000000000e+00 0.000000000000000000e+00 0.000000000000000000e+00 2.515769272959620328e-15 2.823987812423930499e-15 0.000000000000000000e+00 1.342285830544040020e-15 1.308136360236850218e-15
